<?xml version="1.0" encoding="utf-8"?>
<!-- Generator: Adobe Illustrator 19.0.0, SVG Export Plug-In . SVG Version: 6.00 Build 0)  -->
<svg version="1.1" id="Layer_1" xmlns="http://www.w3.org/2000/svg" xmlns:xlink="http://www.w3.org/1999/xlink" x="0px" y="0px"
	 viewBox="0 0 180 180" style="enable-background:new 0 0 180 180;" xml:space="preserve">
<g id="XMLID_1_">
	<path id="XMLID_4_" d="M140,25h30v140H10V25h30V15h10v10h80V15h10V25z M40,35H20v20h140V35h-20v10h-10V35H50v10H40V35z M20,155h140
		V65H20V155z M40,105V95h10v10H40z M40,125v-10h10v10H40z M40,145v-10h10v10H40z M70,85V75h10v10H70z M70,105V95h10v10H70z M70,125
		v-10h10v10H70z M70,145v-10h10v10H70z M100,85V75h10v10H100z M100,105V95h10v10H100z M100,125v-10h10v10H100z M100,145v-10h10v10
		H100z M130,85V75h10v10H130z M130,105V95h10v10H130z M130,125v-10h10v10H130z"/>
</g>
<text id="XMLID_3_" transform="matrix(1 0 0 1 9.9998 364.5716)" style="font-family:'FabricMDL2Assets'; font-size:160px;"></text>
<g id="XMLID_2_">
	<defs>
		<rect id="XMLID_22_" x="-550.7" y="0" width="513.2" height="681.6"/>
	</defs>
	<clipPath id="XMLID_25_">
		<use xlink:href="#XMLID_22_"  style="overflow:visible;"/>
	</clipPath>
	<g style="clip-path:url(#XMLID_25_);">
		
			<image style="overflow:visible;" width="2732" height="768" id="XMLID_23_" xlink:href="6F471C15.jpg"  transform="matrix(1 0 0 1 -1172.1578 -19.7895)">
		</image>
	</g>
</g>
</svg>
